<?xml version="1.0" encoding="iso-8859-1"?>
<!-- Uploaded to: SVG Repo, www.svgrepo.com, Generator: SVG Repo Mixer Tools -->
<svg fill="#000000" version="1.1" id="Layer_1" xmlns="http://www.w3.org/2000/svg" xmlns:xlink="http://www.w3.org/1999/xlink" 
	 viewBox="0 0 484.777 484.777" xml:space="preserve">
<g>
	<g>
		<g>
			<path d="M427.75,0h-356C60.783,0,51.861,8.922,51.861,19.889v54.277H37.138v20h14.722v59.111H37.138v20h14.722v59.111H37.138v20
				h14.722V311.5H37.138v20h14.722v59.11H37.138v20h14.722v54.278c0,10.967,8.922,19.889,19.889,19.889h356
				c10.967,0,19.889-8.922,19.889-19.889v-445C447.639,8.922,438.717,0,427.75,0z M101.304,464.777H71.861V410.61h14.722v-20H71.861
				V331.5h14.722v-20H71.861v-59.111h14.722v-20H71.861v-59.111h14.722v-20H71.861V94.166h14.722v-20H71.861V20h29.444V464.777z
				 M121.304,464.777V20h306.333v444.777H121.304z"/>
			<path d="M403.027,34.61h-257.11c-5.523,0-10,4.478-10,10v128.556c0,5.522,4.477,10,10,10h257.111c5.522,0,10-4.478,10-10V44.61
				C413.027,39.088,408.549,34.61,403.027,34.61z M393.028,163.166L393.028,163.166H155.916v-24.5h212.5v-20h-212.5V54.61h237.111
				V163.166z"/>
			<rect x="323.916" y="400.5" width="89" height="20"/>
			<rect x="393.139" y="430.166" width="19.777" height="20"/>
			<rect x="363.471" y="430.166" width="19.778" height="20"/>
			<rect x="165.694" y="212.61" width="217.556" height="20"/>
			<rect x="165.694" y="252.166" width="217.556" height="20"/>
		</g>
	</g>
</g>
</svg>