<svg xmlns="http://www.w3.org/2000/svg" xmlns:xlink="http://www.w3.org/1999/xlink" version="1.1" width="256" height="256" viewBox="0 0 256 256" xml:space="preserve">

<defs>
</defs>
<g style="stroke: none; stroke-width: 0; stroke-dasharray: none; stroke-linecap: butt; stroke-linejoin: miter; stroke-miterlimit: 10; fill: none; fill-rule: nonzero; opacity: 1;" transform="translate(1.4065934065934016 1.4065934065934016) scale(2.81 2.81)" >
	<path d="M 85.446 88.033 H 4.554 c -1.962 0 -3.553 -1.591 -3.553 -3.553 v -1.736 c 0 -1.962 1.591 -3.553 3.553 -3.553 h 80.892 c 1.962 0 3.553 1.591 3.553 3.553 v 1.736 C 88.999 86.443 87.408 88.033 85.446 88.033 z" style="stroke: none; stroke-width: 1; stroke-dasharray: none; stroke-linecap: butt; stroke-linejoin: miter; stroke-miterlimit: 10; fill: rgb(206,200,198); fill-rule: nonzero; opacity: 1;" transform=" matrix(1 0 0 1 0 0) " stroke-linecap="round" />
	<path d="M 26.698 44.462 L 26.698 44.462 c -9.981 0 -18.072 -8.091 -18.072 -18.072 v -6.352 c 0 -9.981 8.091 -18.072 18.072 -18.072 h 0 c 9.981 0 18.072 8.091 18.072 18.072 v 6.352 C 44.769 36.371 36.678 44.462 26.698 44.462 z" style="stroke: none; stroke-width: 1; stroke-dasharray: none; stroke-linecap: butt; stroke-linejoin: miter; stroke-miterlimit: 10; fill: rgb(249,203,180); fill-rule: nonzero; opacity: 1;" transform=" matrix(1 0 0 1 0 0) " stroke-linecap="round" />
	<path d="M 52.395 79.191 V 63.386 c 0 -10.451 -8.473 -18.924 -18.924 -18.924 H 19.925 c -10.451 0 -18.924 8.473 -18.924 18.924 v 0 c 0 8.729 7.076 15.805 15.805 15.805 H 52.395 z" style="stroke: none; stroke-width: 1; stroke-dasharray: none; stroke-linecap: butt; stroke-linejoin: miter; stroke-miterlimit: 10; fill: rgb(252,95,97); fill-rule: nonzero; opacity: 1;" transform=" matrix(1 0 0 1 0 0) " stroke-linecap="round" />
	<path d="M 26.698 45.462 c -10.516 0 -19.071 -8.556 -19.071 -19.071 v -6.352 c 0 -10.516 8.556 -19.072 19.071 -19.072 c 10.516 0 19.072 8.556 19.072 19.072 v 6.352 C 45.77 36.906 37.214 45.462 26.698 45.462 z M 26.698 2.967 c -9.413 0 -17.071 7.659 -17.071 17.072 v 6.352 c 0 9.413 7.658 17.071 17.071 17.071 S 43.77 35.804 43.77 26.39 v -6.352 C 43.77 10.625 36.111 2.967 26.698 2.967 z" style="stroke: none; stroke-width: 1; stroke-dasharray: none; stroke-linecap: butt; stroke-linejoin: miter; stroke-miterlimit: 10; fill: rgb(0,0,0); fill-rule: nonzero; opacity: 1;" transform=" matrix(1 0 0 1 0 0) " stroke-linecap="round" />
	<path d="M 52.394 80.191 H 16.806 c -9.266 0 -16.805 -7.538 -16.805 -16.804 c 0 -10.986 8.938 -19.924 19.924 -19.924 h 13.546 c 10.986 0 19.923 8.938 19.923 19.924 v 15.804 C 53.394 79.744 52.947 80.191 52.394 80.191 z M 19.925 45.462 c -9.883 0 -17.924 8.041 -17.924 17.924 c 0 8.163 6.641 14.804 14.805 14.804 h 34.588 V 63.386 c 0 -9.884 -8.04 -17.924 -17.924 -17.924 H 19.925 z" style="stroke: none; stroke-width: 1; stroke-dasharray: none; stroke-linecap: butt; stroke-linejoin: miter; stroke-miterlimit: 10; fill: rgb(0,0,0); fill-rule: nonzero; opacity: 1;" transform=" matrix(1 0 0 1 0 0) " stroke-linecap="round" />
	<path d="M 41.097 68.656 H 18.878 c -3.477 0 -6.306 -2.829 -6.306 -6.306 c 0 -0.553 0.448 -1 1 -1 c 0.552 0 1 0.447 1 1 c 0 2.374 1.932 4.306 4.306 4.306 h 22.219 c 0.552 0 1 0.447 1 1 C 42.097 68.209 41.649 68.656 41.097 68.656 z" style="stroke: none; stroke-width: 1; stroke-dasharray: none; stroke-linecap: butt; stroke-linejoin: miter; stroke-miterlimit: 10; fill: rgb(0,0,0); fill-rule: nonzero; opacity: 1;" transform=" matrix(1 0 0 1 0 0) " stroke-linecap="round" />
	<path d="M 13.572 63.35 c -0.552 0 -1 -0.447 -1 -1 c 0 -1.64 0.528 -3.191 1.527 -4.487 c 0.337 -0.439 0.964 -0.521 1.403 -0.182 c 0.437 0.337 0.519 0.965 0.181 1.402 c -0.727 0.943 -1.111 2.072 -1.111 3.267 C 14.572 62.903 14.124 63.35 13.572 63.35 z" style="stroke: none; stroke-width: 1; stroke-dasharray: none; stroke-linecap: butt; stroke-linejoin: miter; stroke-miterlimit: 10; fill: rgb(0,0,0); fill-rule: nonzero; opacity: 1;" transform=" matrix(1 0 0 1 0 0) " stroke-linecap="round" />
	<path d="M 8.702 18.538 c 2.827 1.001 6.034 1.576 9.442 1.576 c 5.841 0 11.098 -1.671 14.828 -4.337 c 3.069 2.194 7.181 3.697 11.793 4.166 c -0.052 -9.936 -8.118 -17.976 -18.067 -17.976 h 0 C 17.223 1.967 9.466 9.261 8.702 18.538 z" style="stroke: none; stroke-width: 1; stroke-dasharray: none; stroke-linecap: butt; stroke-linejoin: miter; stroke-miterlimit: 10; fill: rgb(147,93,56); fill-rule: nonzero; opacity: 1;" transform=" matrix(1 0 0 1 0 0) " stroke-linecap="round" />
	<path d="M 18.144 21.114 c -3.429 0 -6.718 -0.549 -9.776 -1.633 c -0.428 -0.151 -0.7 -0.572 -0.663 -1.024 c 0.808 -9.807 9.15 -17.49 18.992 -17.49 c 10.459 0 19.012 8.511 19.067 18.971 c 0.001 0.284 -0.118 0.555 -0.328 0.746 c -0.21 0.191 -0.492 0.287 -0.773 0.254 c -4.384 -0.446 -8.504 -1.841 -11.692 -3.947 C 28.96 19.654 23.726 21.114 18.144 21.114 z M 9.78 17.847 c 2.632 0.841 5.441 1.268 8.364 1.268 c 5.442 0 10.502 -1.474 14.246 -4.151 c 0.348 -0.249 0.815 -0.249 1.163 0 c 2.715 1.941 6.291 3.288 10.168 3.844 C 43.087 9.973 35.677 2.967 26.698 2.967 C 18.149 2.967 10.865 9.442 9.78 17.847 z" style="stroke: none; stroke-width: 1; stroke-dasharray: none; stroke-linecap: butt; stroke-linejoin: miter; stroke-miterlimit: 10; fill: rgb(0,0,0); fill-rule: nonzero; opacity: 1;" transform=" matrix(1 0 0 1 0 0) " stroke-linecap="round" />
	<path d="M 84.878 44.462 H 39.623 c -2.825 0 -5.314 1.859 -6.116 4.568 l -8.931 30.161 h 55.533 l 8.718 -29.441 C 89.609 47.111 87.631 44.462 84.878 44.462 z" style="stroke: none; stroke-width: 1; stroke-dasharray: none; stroke-linecap: butt; stroke-linejoin: miter; stroke-miterlimit: 10; fill: rgb(237,235,237); fill-rule: nonzero; opacity: 1;" transform=" matrix(1 0 0 1 0 0) " stroke-linecap="round" />
	<path d="M 80.109 80.191 H 24.576 c -0.315 0 -0.612 -0.148 -0.801 -0.401 c -0.189 -0.253 -0.247 -0.58 -0.158 -0.883 l 8.931 -30.161 c 0.921 -3.111 3.83 -5.284 7.075 -5.284 h 45.255 c 1.631 0 3.125 0.749 4.101 2.056 c 0.977 1.307 1.27 2.952 0.808 4.517 l -8.719 29.441 C 80.942 79.9 80.552 80.191 80.109 80.191 z M 25.914 78.191 h 53.447 l 8.507 -28.725 c 0.282 -0.952 0.103 -1.956 -0.492 -2.752 c -0.594 -0.795 -1.505 -1.252 -2.498 -1.252 H 39.623 c -2.365 0 -4.486 1.584 -5.157 3.852 L 25.914 78.191 z" style="stroke: none; stroke-width: 1; stroke-dasharray: none; stroke-linecap: butt; stroke-linejoin: miter; stroke-miterlimit: 10; fill: rgb(0,0,0); fill-rule: nonzero; opacity: 1;" transform=" matrix(1 0 0 1 0 0) " stroke-linecap="round" />
	<ellipse cx="58.636" cy="61.405" rx="5.566" ry="3.975" style="stroke: none; stroke-width: 1; stroke-dasharray: none; stroke-linecap: butt; stroke-linejoin: miter; stroke-miterlimit: 10; fill: rgb(206,200,198); fill-rule: nonzero; opacity: 1;" transform=" matrix(0.2883 -0.9576 0.9576 0.2883 -17.0599 99.8544) "/>
	<path d="M 57.885 67.855 c -0.16 0 -0.319 -0.01 -0.479 -0.028 c -1.11 -0.132 -2.107 -0.739 -2.808 -1.71 c -1 -1.386 -1.333 -3.35 -0.913 -5.388 c 0.729 -3.55 3.448 -6.069 6.192 -5.75 c 1.111 0.133 2.108 0.74 2.809 1.712 c 0.999 1.386 1.331 3.349 0.911 5.386 l 0 0 C 62.909 65.421 60.457 67.855 57.885 67.855 z M 59.402 56.951 c -1.595 0 -3.277 1.843 -3.759 4.181 c -0.303 1.47 -0.087 2.896 0.576 3.815 c 0.261 0.361 0.719 0.811 1.422 0.894 c 1.658 0.205 3.49 -1.71 3.996 -4.166 v -0.001 c 0.303 -1.469 0.088 -2.894 -0.574 -3.813 c -0.261 -0.362 -0.72 -0.811 -1.423 -0.895 C 59.561 56.956 59.481 56.951 59.402 56.951 z" style="stroke: none; stroke-width: 1; stroke-dasharray: none; stroke-linecap: butt; stroke-linejoin: miter; stroke-miterlimit: 10; fill: rgb(0,0,0); fill-rule: nonzero; opacity: 1;" transform=" matrix(1 0 0 1 0 0) " stroke-linecap="round" />
	<path d="M 85.447 89.033 H 4.554 c -2.511 0 -4.553 -2.043 -4.553 -4.554 v -1.735 c 0 -2.511 2.042 -4.554 4.553 -4.554 h 80.893 c 2.511 0 4.553 2.043 4.553 4.554 v 1.735 C 89.999 86.99 87.957 89.033 85.447 89.033 z M 4.554 80.191 c -1.408 0 -2.553 1.145 -2.553 2.554 v 1.735 c 0 1.408 1.145 2.554 2.553 2.554 h 80.893 c 1.407 0 2.553 -1.145 2.553 -2.554 v -1.735 c 0 -1.408 -1.145 -2.554 -2.553 -2.554 H 4.554 z" style="stroke: none; stroke-width: 1; stroke-dasharray: none; stroke-linecap: butt; stroke-linejoin: miter; stroke-miterlimit: 10; fill: rgb(0,0,0); fill-rule: nonzero; opacity: 1;" transform=" matrix(1 0 0 1 0 0) " stroke-linecap="round" />
</g>
</svg>